<?xml version="1.0" encoding="utf-8"?>
<!-- Generator: Adobe Illustrator 22.0.0, SVG Export Plug-In . SVG Version: 6.00 Build 0)  -->
<svg version="1.1" xmlns="http://www.w3.org/2000/svg" xmlns:xlink="http://www.w3.org/1999/xlink" x="0px" y="0px"
	 viewBox="0 0 62.3 48.9" style="enable-background:new 0 0 62.3 48.9;" xml:space="preserve">
<style type="text/css">
	.st0{fill:#DE2C3E;}
	.st1{display:none;}
	.st2{display:inline;}
</style>
<g id="Livello_1">
	<g>
		<g>
			<g>
				<path class="st0" d="M53.1,2.9H9.2C5.3,2.9,2.1,6,2.1,9.9V39c0,3.8,3.2,6.9,7.1,6.9H53c3.9,0,7.1-3.1,7.1-6.9V9.9
					C60.2,6.1,57,2.9,53.1,2.9z M53.1,42.8H9.2c-2.1,0-3.9-1.7-3.9-3.8V9.9c0-2.1,1.7-3.8,3.9-3.8H53c2.1,0,3.9,1.7,3.9,3.8V39h0
					C56.9,41.1,55.2,42.8,53.1,42.8z M38.7,24.1l14.2-12.4c0.7-0.6,0.7-1.6,0.1-2.2c-0.6-0.6-1.6-0.7-2.3-0.1L31.2,26.4l-3.8-3.3
					c0,0,0,0,0,0c-0.1-0.1-0.2-0.2-0.3-0.2L11.5,9.3c-0.7-0.6-1.7-0.5-2.3,0.1c-0.6,0.7-0.5,1.6,0.1,2.2l14.4,12.5l-14.3,13
					c-0.6,0.6-0.7,1.6-0.1,2.2c0.3,0.3,0.8,0.5,1.2,0.5c0.4,0,0.8-0.1,1.1-0.4l14.5-13.2l3.9,3.4c0.3,0.3,0.7,0.4,1.1,0.4
					c0.4,0,0.8-0.1,1.1-0.4l4-3.5l14.4,13.4c0.3,0.3,0.7,0.4,1.1,0.4c0.4,0,0.9-0.2,1.2-0.5c0.6-0.6,0.6-1.6-0.1-2.2L38.7,24.1z"/>
			</g>
		</g>
	</g>
</g>
<g id="Livello_2" class="st1">
</g>
</svg>
