<?xml version="1.0" encoding="utf-8"?>
<!-- Generator: Adobe Illustrator 22.0.0, SVG Export Plug-In . SVG Version: 6.00 Build 0)  -->
<svg version="1.1" xmlns="http://www.w3.org/2000/svg" xmlns:xlink="http://www.w3.org/1999/xlink" x="0px" y="0px"
	 viewBox="0 0 62.3 48.9" style="enable-background:new 0 0 62.3 48.9;" xml:space="preserve">
<style type="text/css">
	.st0{fill:#DE2C3E;}
	.st1{display:none;}
	.st2{display:inline;}
</style>
<g id="Livello_1">
	<g>
		<g>
			<path class="st0" d="M40.8,3H21.5C14.9,3,9.6,8.3,9.6,14.8v19.3c0,6.5,5.3,11.9,11.9,11.9h19.3c6.6,0,11.9-5.3,11.9-11.9V14.8
				C52.7,8.3,47.4,3,40.8,3z M40.8,42.1H21.5c-4.5,0-8.1-3.6-8.1-8.1V14.8c0-4.4,3.6-8.1,8.1-8.1h19.3c4.5,0,8.1,3.6,8.1,8.1v19.3h0
				C48.9,38.5,45.3,42.1,40.8,42.1z M31.1,13.4c-6.1,0-11.1,5-11.1,11.1c0,6.1,5,11.1,11.1,11.1s11.1-5,11.1-11.1
				C42.3,18.3,37.3,13.4,31.1,13.4z M31.1,31.7c-4,0-7.3-3.3-7.3-7.3s3.3-7.3,7.3-7.3c4,0,7.3,3.3,7.3,7.3S35.2,31.7,31.1,31.7z
				 M42.7,10.1c-0.7,0-1.5,0.3-2,0.8c-0.5,0.5-0.8,1.2-0.8,2c0,0.7,0.3,1.5,0.8,2c0.5,0.5,1.2,0.8,2,0.8c0.7,0,1.5-0.3,2-0.8
				c0.5-0.5,0.8-1.2,0.8-2c0-0.7-0.3-1.5-0.8-2C44.2,10.4,43.5,10.1,42.7,10.1z"/>
		</g>
	</g>
</g>
<g id="Livello_2" class="st1">
</g>
</svg>
